<svg xmlns="http://www.w3.org/2000/svg" xmlns:xlink="http://www.w3.org/1999/xlink" preserveAspectRatio="xMidYMid" width="44.469" height="45" viewBox="0 0 44.469 45">
  <defs>
    <style>
      .cls-1 {
        fill: #e64895;
      }

      .cls-1, .cls-2 {
        fill-rule: evenodd;
      }

      .cls-2 {
        fill: #fff;
      }
    </style>
  </defs>
  <g>
    <path d="M7.644,0.500 L37.832,0.500 C41.773,0.500 44.967,3.734 44.967,7.723 L44.967,38.278 C44.967,42.267 41.773,45.500 37.832,45.500 L7.644,45.500 C3.703,45.500 0.509,42.267 0.509,38.278 L0.509,7.723 C0.509,3.734 3.703,0.500 7.644,0.500 Z" class="cls-1"/>
    <path d="M27.316,33.248 C27.306,33.253 27.297,33.257 27.287,33.262 C25.750,34.004 24.037,34.432 22.223,34.432 C15.712,34.432 10.415,29.072 10.415,22.483 C10.415,17.551 13.383,13.308 17.606,11.486 C17.625,11.478 17.641,11.469 17.660,11.463 C19.065,10.865 20.606,10.533 22.223,10.533 C28.735,10.533 34.032,15.893 34.032,22.483 C34.032,27.225 31.281,31.319 27.316,33.248 ZM27.566,31.415 C30.077,29.871 31.877,27.277 32.391,24.241 C31.695,24.037 28.996,23.376 25.584,24.062 C26.820,27.278 27.352,29.975 27.566,31.415 ZM26.172,32.141 C26.025,30.999 25.530,28.026 24.132,24.427 C23.513,24.616 22.880,24.849 22.236,25.144 C17.955,27.107 16.239,29.979 15.860,30.703 C17.616,32.098 19.823,32.938 22.223,32.938 C23.622,32.938 24.954,32.652 26.172,32.141 ZM11.892,22.483 C11.892,25.268 12.980,27.795 14.740,29.671 C15.442,28.465 17.411,25.715 21.628,23.783 C22.286,23.481 22.932,23.242 23.565,23.041 C23.289,22.412 22.988,21.771 22.654,21.120 C22.584,20.984 22.520,20.868 22.451,20.736 C18.964,21.840 15.945,22.098 13.941,22.098 C13.053,22.098 12.372,22.049 11.926,22.005 C11.919,22.165 11.892,22.320 11.892,22.483 ZM12.099,20.517 C13.417,20.640 17.150,20.794 21.740,19.395 C19.792,15.826 18.339,13.873 17.709,13.093 C14.834,14.515 12.720,17.249 12.099,20.517 ZM22.223,12.027 C21.149,12.027 20.112,12.195 19.137,12.505 C19.929,13.531 21.343,15.546 23.164,18.913 C27.214,17.374 28.469,15.257 28.812,14.437 C27.022,12.933 24.726,12.027 22.223,12.027 ZM29.924,15.537 C29.257,16.781 27.644,18.765 23.864,20.242 C23.898,20.308 23.929,20.365 23.963,20.431 C24.352,21.187 24.688,21.924 25.001,22.648 C28.542,21.860 31.406,22.426 32.539,22.730 C32.541,22.647 32.556,22.567 32.556,22.483 C32.556,19.816 31.555,17.386 29.924,15.537 Z" class="cls-2"/>
  </g>
</svg>
