<svg xmlns="http://www.w3.org/2000/svg" xmlns:xlink="http://www.w3.org/1999/xlink" preserveAspectRatio="xMidYMid" width="44.438" height="45" viewBox="0 0 44.438 45">
  <defs>
    <style>
      .cls-1 {
        fill: #345bb4;
      }

      .cls-1, .cls-2 {
        fill-rule: evenodd;
      }

      .cls-2 {
        fill: #fff;
      }
    </style>
  </defs>
  <g>
    <path d="M7.630,0.500 L37.818,0.500 C41.758,0.500 44.953,3.734 44.953,7.723 L44.953,38.278 C44.953,42.267 41.758,45.500 37.818,45.500 L7.630,45.500 C3.689,45.500 0.494,42.267 0.494,38.278 L0.494,7.723 C0.494,3.734 3.689,0.500 7.630,0.500 Z" class="cls-1"/>
    <path d="M24.117,12.046 C24.206,12.046 24.258,12.049 24.258,12.049 L26.219,12.049 L26.208,14.310 L24.261,14.310 C23.189,14.310 23.214,15.228 23.214,15.228 L23.214,18.811 L27.006,18.811 L26.477,21.068 L23.201,21.068 L23.201,32.364 L20.951,32.364 L20.949,21.068 L17.959,21.068 L17.953,18.811 L20.951,18.811 C20.951,18.811 20.951,16.047 20.951,15.298 C20.951,12.236 23.486,12.046 24.117,12.046 M26.219,12.049 L26.222,12.049 M24.117,10.539 L24.117,10.539 C23.577,10.539 22.522,10.629 21.523,11.233 C20.576,11.804 19.449,12.973 19.449,15.298 L19.449,17.304 L17.953,17.304 C17.554,17.304 17.172,17.464 16.889,17.747 C16.608,18.031 16.450,18.415 16.452,18.816 L16.457,21.074 C16.460,21.903 17.132,22.575 17.959,22.575 L19.447,22.575 L19.449,32.364 C19.449,33.197 20.121,33.871 20.951,33.871 L23.201,33.871 C24.030,33.871 24.703,33.197 24.703,32.364 L24.703,22.575 L26.477,22.575 C27.143,22.575 27.730,22.134 27.918,21.493 L28.447,19.236 C28.581,18.780 28.492,18.288 28.208,17.908 C27.925,17.528 27.479,17.304 27.006,17.304 L24.715,17.304 L24.715,15.817 L26.208,15.817 C27.035,15.817 27.707,15.146 27.710,14.316 L27.721,12.133 C27.722,12.104 27.723,12.077 27.723,12.049 C27.723,11.217 27.052,10.543 26.222,10.543 L26.219,10.543 L24.300,10.543 C24.257,10.540 24.195,10.539 24.117,10.539 L24.117,10.539 Z" class="cls-2"/>
  </g>
</svg>
