<svg xmlns="http://www.w3.org/2000/svg" xmlns:xlink="http://www.w3.org/1999/xlink" preserveAspectRatio="xMidYMid" width="44.469" height="45" viewBox="0 0 44.469 45">
  <defs>
    <style>
      .cls-1 {
        fill: #00b4ff;
      }

      .cls-1, .cls-2 {
        fill-rule: evenodd;
      }

      .cls-2 {
        fill: #fff;
      }
    </style>
  </defs>
  <g>
    <path d="M7.640,0.500 L37.828,0.500 C41.769,0.500 44.963,3.734 44.963,7.723 L44.963,38.278 C44.963,42.267 41.769,45.500 37.828,45.500 L7.640,45.500 C3.699,45.500 0.505,42.267 0.505,38.278 L0.505,7.723 C0.505,3.734 3.699,0.500 7.640,0.500 Z" class="cls-1"/>
    <path d="M26.013,14.730 C27.176,14.730 28.225,15.205 28.964,15.967 C29.884,15.790 30.751,15.466 31.530,15.018 C31.228,15.931 30.587,16.698 29.753,17.183 C30.569,17.087 31.350,16.878 32.075,16.565 C31.532,17.349 30.848,18.040 30.058,18.592 C30.065,18.759 30.069,18.929 30.069,19.097 C30.069,24.271 26.003,30.236 18.567,30.236 C16.285,30.236 14.159,29.586 12.371,28.476 C12.687,28.513 13.008,28.531 13.335,28.531 C15.228,28.531 16.972,27.906 18.356,26.855 C16.586,26.824 15.092,25.692 14.580,24.137 C14.826,24.183 15.080,24.208 15.341,24.208 C15.708,24.208 16.066,24.160 16.405,24.070 C14.556,23.712 13.162,22.130 13.162,20.232 C13.162,20.215 13.162,20.199 13.162,20.182 C13.708,20.476 14.331,20.652 14.994,20.672 C13.909,19.969 13.195,18.773 13.195,17.414 C13.195,16.696 13.395,16.024 13.743,15.448 C15.736,17.813 18.715,19.372 22.075,19.537 C22.006,19.251 21.970,18.949 21.970,18.645 C21.970,16.482 23.780,14.730 26.013,14.730 M32.075,16.565 L32.078,16.565 M26.013,13.326 C23.251,13.326 20.963,15.341 20.611,17.944 C18.351,17.491 16.296,16.296 14.819,14.544 C14.551,14.225 14.156,14.043 13.743,14.043 C13.706,14.043 13.669,14.045 13.632,14.047 C13.179,14.083 12.772,14.335 12.538,14.723 C12.047,15.535 11.788,16.466 11.788,17.414 C11.788,18.047 11.902,18.664 12.118,19.241 C11.888,19.496 11.755,19.830 11.755,20.182 L11.755,20.232 C11.755,21.608 12.300,22.884 13.205,23.841 C13.153,24.081 13.164,24.334 13.244,24.576 C13.556,25.523 14.124,26.340 14.860,26.962 C14.366,27.071 13.855,27.127 13.335,27.127 C13.059,27.127 12.791,27.112 12.538,27.081 C12.481,27.075 12.426,27.071 12.370,27.071 C11.779,27.071 11.243,27.443 11.044,28.010 C10.825,28.631 11.068,29.321 11.628,29.668 C13.705,30.959 16.105,31.641 18.567,31.641 C26.568,31.641 31.381,25.387 31.475,19.278 C32.130,18.737 32.708,18.111 33.199,17.410 C33.378,17.175 33.484,16.882 33.484,16.565 C33.484,16.087 33.245,15.664 32.880,15.411 C33.038,14.870 32.857,14.285 32.418,13.928 C32.161,13.720 31.846,13.613 31.530,13.613 C31.288,13.613 31.045,13.675 30.827,13.801 C30.362,14.069 29.865,14.280 29.341,14.433 C28.394,13.722 27.220,13.326 26.013,13.326 L26.013,13.326 Z" class="cls-2"/>
  </g>
</svg>
